<svg width="16" height="17" viewBox="0 0 16 17" fill="none" xmlns="http://www.w3.org/2000/svg">
<path d="M9.28125 3.01404L14.7812 8.26404C14.9271 8.40987 15 8.58695 15 8.79529C15 9.00362 14.9271 9.1807 14.7812 9.32654L9.28125 14.5765C8.90625 14.8682 8.55208 14.8682 8.21875 14.5765C7.92708 14.2015 7.92708 13.8474 8.21875 13.514L12.375 9.54529H1.75C1.29167 9.50362 1.04167 9.25362 1 8.79529C1.04167 8.33695 1.29167 8.08695 1.75 8.04529H12.375L8.21875 4.07654C7.92708 3.7432 7.92708 3.38904 8.21875 3.01404C8.55208 2.72237 8.90625 2.72237 9.28125 3.01404Z" fill="black"/>
</svg>
